<mxfile host="app.diagrams.net" agent="Mozilla/5.0 (Windows NT 10.0; Win64; x64; rv:131.0) Gecko/20100101 Firefox/131.0" version="24.8.3">
  <diagram name="Page-1" id="zfKvzwWwyDWdgSp1W5YI">
    <mxGraphModel dx="823" dy="560" grid="1" gridSize="10" guides="1" tooltips="1" connect="1" arrows="1" fold="1" page="1" pageScale="1" pageWidth="850" pageHeight="1100" math="0" shadow="0">
      <root>
        <mxCell id="0" />
        <mxCell id="1" parent="0" />
        <mxCell id="8DChFf8li1cjJ_NN8GA--19" value="Region" style="points=[[0,0],[0.25,0],[0.5,0],[0.75,0],[1,0],[1,0.25],[1,0.5],[1,0.75],[1,1],[0.75,1],[0.5,1],[0.25,1],[0,1],[0,0.75],[0,0.5],[0,0.25]];outlineConnect=0;gradientColor=none;html=1;whiteSpace=wrap;fontSize=12;fontStyle=0;container=1;pointerEvents=0;collapsible=0;recursiveResize=0;shape=mxgraph.aws4.group;grIcon=mxgraph.aws4.group_region;strokeColor=#00A4A6;fillColor=none;verticalAlign=top;align=left;spacingLeft=30;fontColor=#147EBA;dashed=1;" vertex="1" parent="1">
          <mxGeometry x="135" y="360" width="405" height="330" as="geometry" />
        </mxCell>
        <mxCell id="8DChFf8li1cjJ_NN8GA--15" value="VPC" style="points=[[0,0],[0.25,0],[0.5,0],[0.75,0],[1,0],[1,0.25],[1,0.5],[1,0.75],[1,1],[0.75,1],[0.5,1],[0.25,1],[0,1],[0,0.75],[0,0.5],[0,0.25]];outlineConnect=0;gradientColor=none;html=1;whiteSpace=wrap;fontSize=12;fontStyle=0;container=1;pointerEvents=0;collapsible=0;recursiveResize=0;shape=mxgraph.aws4.group;grIcon=mxgraph.aws4.group_vpc2;strokeColor=#8C4FFF;fillColor=none;verticalAlign=top;align=left;spacingLeft=30;fontColor=#AAB7B8;dashed=0;" vertex="1" parent="8DChFf8li1cjJ_NN8GA--19">
          <mxGeometry x="26" y="30" width="353" height="280" as="geometry" />
        </mxCell>
        <mxCell id="8DChFf8li1cjJ_NN8GA--16" value="Public subnet" style="points=[[0,0],[0.25,0],[0.5,0],[0.75,0],[1,0],[1,0.25],[1,0.5],[1,0.75],[1,1],[0.75,1],[0.5,1],[0.25,1],[0,1],[0,0.75],[0,0.5],[0,0.25]];outlineConnect=0;gradientColor=none;html=1;whiteSpace=wrap;fontSize=12;fontStyle=0;container=1;pointerEvents=0;collapsible=0;recursiveResize=0;shape=mxgraph.aws4.group;grIcon=mxgraph.aws4.group_security_group;grStroke=0;strokeColor=#7AA116;fillColor=#F2F6E8;verticalAlign=top;align=left;spacingLeft=30;fontColor=#248814;dashed=0;" vertex="1" parent="8DChFf8li1cjJ_NN8GA--15">
          <mxGeometry x="57.5" y="60" width="236" height="170" as="geometry" />
        </mxCell>
        <mxCell id="8DChFf8li1cjJ_NN8GA--20" value="Availability Zone" style="fillColor=none;strokeColor=#147EBA;dashed=1;verticalAlign=top;fontStyle=0;fontColor=#147EBA;whiteSpace=wrap;html=1;" vertex="1" parent="8DChFf8li1cjJ_NN8GA--15">
          <mxGeometry x="45.5" y="36.5" width="260" height="205" as="geometry" />
        </mxCell>
        <mxCell id="8DChFf8li1cjJ_NN8GA--21" value="&lt;b&gt;10.0.0.0/16&lt;/b&gt;" style="text;html=1;align=center;verticalAlign=middle;whiteSpace=wrap;rounded=0;" vertex="1" parent="8DChFf8li1cjJ_NN8GA--15">
          <mxGeometry x="-11" width="210" height="30" as="geometry" />
        </mxCell>
        <mxCell id="8DChFf8li1cjJ_NN8GA--22" value="&lt;b&gt;10.0.0.0/24&lt;/b&gt;" style="text;html=1;align=center;verticalAlign=middle;whiteSpace=wrap;rounded=0;" vertex="1" parent="8DChFf8li1cjJ_NN8GA--15">
          <mxGeometry x="95.5" y="60" width="210" height="30" as="geometry" />
        </mxCell>
        <mxCell id="8DChFf8li1cjJ_NN8GA--27" value="" style="edgeStyle=orthogonalEdgeStyle;html=1;endArrow=block;elbow=vertical;startArrow=block;startFill=1;endFill=1;strokeColor=#545B64;rounded=0;" edge="1" parent="8DChFf8li1cjJ_NN8GA--15">
          <mxGeometry width="100" relative="1" as="geometry">
            <mxPoint x="349" y="140" as="sourcePoint" />
            <mxPoint x="449" y="140" as="targetPoint" />
          </mxGeometry>
        </mxCell>
        <mxCell id="8DChFf8li1cjJ_NN8GA--14" value="" style="sketch=0;outlineConnect=0;fontColor=#232F3E;gradientColor=none;fillColor=#8C4FFF;strokeColor=none;dashed=0;verticalLabelPosition=bottom;verticalAlign=top;align=center;html=1;fontSize=12;fontStyle=0;aspect=fixed;pointerEvents=1;shape=mxgraph.aws4.internet_gateway;" vertex="1" parent="1">
          <mxGeometry x="610" y="490" width="78" height="78" as="geometry" />
        </mxCell>
        <mxCell id="8DChFf8li1cjJ_NN8GA--23" value="&lt;div&gt;&lt;b&gt;Internet Gateway&lt;/b&gt;&lt;/div&gt;" style="text;html=1;align=center;verticalAlign=middle;whiteSpace=wrap;rounded=0;" vertex="1" parent="1">
          <mxGeometry x="544" y="568" width="210" height="30" as="geometry" />
        </mxCell>
      </root>
    </mxGraphModel>
  </diagram>
</mxfile>
